# xmcd CD database file
#
# Track frame offsets:
#	150
#	13490
#	42861
#	64509
#	87742
#	108243
#	127776
#	149241
#	172933
#	193615
#	211453
#	239124
#
# Disc length: 3222 seconds
#
# Revision: 0
# Processed by: cddbd v1.5.2PL0 Copyright (c) Steve Scherf et al.
# Submitted via: CDex 1.51
#
DISCID=b30c940c
DTITLE=Mike Levy - Straight Up, Right?
DYEAR=2011
DGENRE=Jazz
TTITLE0=Straight Up, Right?
TTITLE1=Nowadays
TTITLE2=Ain't That Good News
TTITLE3=It Doesn't Go Like That
TTITLE4=My Peach Pie
TTITLE5=Ice On My Head
TTITLE6=Pig Will, Pig Won't
TTITLE7=The Chicken
TTITLE8=Question
TTITLE9=Round In All the RIght Places
TTITLE10=Last Song
TTITLE11=Ain't That Good News (Reprise)
EXTD=YEAR: 2011
EXTT0=
EXTT1=
EXTT2=
EXTT3=
EXTT4=
EXTT5=
EXTT6=
EXTT7=
EXTT8=
EXTT9=
EXTT10=
EXTT11=
PLAYORDER=
